<mxfile host="app.diagrams.net" modified="2023-08-25T08:58:28.669Z" agent="Mozilla/5.0 (Macintosh; Intel Mac OS X 10_15_7) AppleWebKit/537.36 (KHTML, like Gecko) Chrome/116.0.0.0 Safari/537.36" etag="Zso41IzfiS1kVPa80hng" version="21.6.9" type="github">
  <diagram id="3228e29e-7158-1315-38df-8450db1d8a1d" name="Page-1">
    <mxGraphModel dx="1306" dy="757" grid="1" gridSize="10" guides="1" tooltips="1" connect="1" arrows="1" fold="1" page="1" pageScale="1" pageWidth="500" pageHeight="200" background="#ffffff" math="0" shadow="1">
      <root>
        <mxCell id="0" />
        <mxCell id="1" parent="0" />
        <mxCell id="2FnHlDQc3e_-eUdSoOCG-1" value="" style="rounded=1;whiteSpace=wrap;html=1;fillColor=#FDD276;" parent="1" vertex="1">
          <mxGeometry x="45" y="190" width="380" height="400" as="geometry" />
        </mxCell>
        <mxCell id="fYc7Ru6buci-YKz5Eo-_-1" value="" style="fontColor=#0066CC;verticalAlign=top;verticalLabelPosition=bottom;labelPosition=center;align=center;html=1;outlineConnect=0;gradientColor=none;gradientDirection=north;strokeWidth=2;shape=mxgraph.networks.hub;fillColor=#FDD276;" parent="1" vertex="1">
          <mxGeometry x="185" y="48" width="130" height="39" as="geometry" />
        </mxCell>
        <mxCell id="fYc7Ru6buci-YKz5Eo-_-4" value="&lt;span style=&quot;font-size: 30px&quot;&gt;集线器&lt;/span&gt;" style="text;html=1;strokeColor=none;fillColor=none;align=center;verticalAlign=middle;whiteSpace=wrap;rounded=0;" parent="1" vertex="1">
          <mxGeometry x="200" y="10" width="100" height="31" as="geometry" />
        </mxCell>
        <mxCell id="2FnHlDQc3e_-eUdSoOCG-2" value="&lt;font style=&quot;font-size: 20px&quot;&gt;A网口&lt;/font&gt;" style="rounded=1;whiteSpace=wrap;html=1;fillColor=#9AC7BF;strokeColor=#9AC7BF;dashed=1;strokeWidth=3;" parent="1" vertex="1">
          <mxGeometry x="395" y="230" width="60" height="60" as="geometry" />
        </mxCell>
        <mxCell id="2FnHlDQc3e_-eUdSoOCG-4" value="" style="rounded=1;whiteSpace=wrap;html=1;fillColor=#9AC7BF;strokeColor=#9AC7BF;strokeWidth=3;dashed=1;" parent="1" vertex="1">
          <mxGeometry x="395" y="400" width="60" height="60" as="geometry" />
        </mxCell>
        <mxCell id="2FnHlDQc3e_-eUdSoOCG-5" value="" style="rounded=1;whiteSpace=wrap;html=1;fillColor=#9AC7BF;strokeColor=#9AC7BF;strokeWidth=3;dashed=1;" parent="1" vertex="1">
          <mxGeometry x="395" y="490" width="60" height="60" as="geometry" />
        </mxCell>
        <mxCell id="2FnHlDQc3e_-eUdSoOCG-6" value="&lt;span style=&quot;font-size: 30px;&quot;&gt;广&lt;br&gt;播&lt;br&gt;电&lt;br&gt;路&lt;/span&gt;" style="rounded=1;whiteSpace=wrap;html=1;fillColor=#F19C99;" parent="1" vertex="1">
          <mxGeometry x="65" y="235" width="90" height="315" as="geometry" />
        </mxCell>
        <mxCell id="2FnHlDQc3e_-eUdSoOCG-10" style="edgeStyle=orthogonalEdgeStyle;rounded=0;orthogonalLoop=1;jettySize=auto;html=1;exitX=1;exitY=0.5;exitDx=0;exitDy=0;entryX=0;entryY=0.5;entryDx=0;entryDy=0;endArrow=none;endFill=0;strokeWidth=5;shape=link;" parent="1" source="2FnHlDQc3e_-eUdSoOCG-7" target="2FnHlDQc3e_-eUdSoOCG-2" edge="1">
          <mxGeometry relative="1" as="geometry" />
        </mxCell>
        <mxCell id="2FnHlDQc3e_-eUdSoOCG-11" style="edgeStyle=orthogonalEdgeStyle;rounded=0;orthogonalLoop=1;jettySize=auto;html=1;exitX=0;exitY=0.5;exitDx=0;exitDy=0;entryX=0.989;entryY=0.079;entryDx=0;entryDy=0;entryPerimeter=0;endArrow=none;endFill=0;strokeWidth=5;shape=link;" parent="1" source="2FnHlDQc3e_-eUdSoOCG-7" target="2FnHlDQc3e_-eUdSoOCG-6" edge="1">
          <mxGeometry relative="1" as="geometry" />
        </mxCell>
        <mxCell id="2FnHlDQc3e_-eUdSoOCG-7" value="&lt;font style=&quot;font-size: 25px&quot;&gt;PHY&lt;/font&gt;" style="rounded=1;whiteSpace=wrap;html=1;fillColor=#A0ACDE;" parent="1" vertex="1">
          <mxGeometry x="215" y="232.5" width="100" height="55" as="geometry" />
        </mxCell>
        <mxCell id="2FnHlDQc3e_-eUdSoOCG-12" value="&lt;span style=&quot;font-size: 20px&quot;&gt;B网口&lt;/span&gt;" style="rounded=1;whiteSpace=wrap;html=1;fillColor=#9AC7BF;strokeWidth=3;dashed=1;strokeColor=#9AC7BF;" parent="1" vertex="1">
          <mxGeometry x="395.99" y="320" width="60" height="60" as="geometry" />
        </mxCell>
        <mxCell id="2FnHlDQc3e_-eUdSoOCG-13" style="edgeStyle=orthogonalEdgeStyle;rounded=0;orthogonalLoop=1;jettySize=auto;html=1;exitX=1;exitY=0.5;exitDx=0;exitDy=0;entryX=0;entryY=0.5;entryDx=0;entryDy=0;endArrow=none;endFill=0;strokeWidth=5;shape=link;" parent="1" source="2FnHlDQc3e_-eUdSoOCG-15" target="2FnHlDQc3e_-eUdSoOCG-12" edge="1">
          <mxGeometry relative="1" as="geometry" />
        </mxCell>
        <mxCell id="2FnHlDQc3e_-eUdSoOCG-14" style="edgeStyle=orthogonalEdgeStyle;rounded=0;orthogonalLoop=1;jettySize=auto;html=1;exitX=0;exitY=0.5;exitDx=0;exitDy=0;entryX=0.989;entryY=0.079;entryDx=0;entryDy=0;entryPerimeter=0;endArrow=none;endFill=0;strokeWidth=5;shape=link;" parent="1" source="2FnHlDQc3e_-eUdSoOCG-15" edge="1">
          <mxGeometry relative="1" as="geometry">
            <mxPoint x="155" y="349.885" as="targetPoint" />
          </mxGeometry>
        </mxCell>
        <mxCell id="2FnHlDQc3e_-eUdSoOCG-15" value="&lt;font style=&quot;font-size: 25px&quot;&gt;PHY&lt;/font&gt;" style="rounded=1;whiteSpace=wrap;html=1;fillColor=#A0ACDE;" parent="1" vertex="1">
          <mxGeometry x="215.99" y="322.5" width="100" height="55" as="geometry" />
        </mxCell>
        <mxCell id="2FnHlDQc3e_-eUdSoOCG-16" value="&lt;span style=&quot;font-size: 20px&quot;&gt;C网口&lt;/span&gt;" style="rounded=1;whiteSpace=wrap;html=1;fillColor=#9AC7BF;strokeColor=#9AC7BF;strokeWidth=3;dashed=1;" parent="1" vertex="1">
          <mxGeometry x="395" y="400" width="60" height="60" as="geometry" />
        </mxCell>
        <mxCell id="2FnHlDQc3e_-eUdSoOCG-17" style="edgeStyle=orthogonalEdgeStyle;rounded=0;orthogonalLoop=1;jettySize=auto;html=1;exitX=1;exitY=0.5;exitDx=0;exitDy=0;entryX=0;entryY=0.5;entryDx=0;entryDy=0;endArrow=none;endFill=0;strokeWidth=5;shape=link;" parent="1" source="2FnHlDQc3e_-eUdSoOCG-19" target="2FnHlDQc3e_-eUdSoOCG-16" edge="1">
          <mxGeometry relative="1" as="geometry" />
        </mxCell>
        <mxCell id="2FnHlDQc3e_-eUdSoOCG-18" style="edgeStyle=orthogonalEdgeStyle;rounded=0;orthogonalLoop=1;jettySize=auto;html=1;exitX=0;exitY=0.5;exitDx=0;exitDy=0;entryX=0.989;entryY=0.079;entryDx=0;entryDy=0;entryPerimeter=0;endArrow=none;endFill=0;strokeWidth=5;shape=link;" parent="1" source="2FnHlDQc3e_-eUdSoOCG-19" edge="1">
          <mxGeometry relative="1" as="geometry">
            <mxPoint x="154.01" y="429.885" as="targetPoint" />
          </mxGeometry>
        </mxCell>
        <mxCell id="2FnHlDQc3e_-eUdSoOCG-19" value="&lt;font style=&quot;font-size: 25px&quot;&gt;PHY&lt;/font&gt;" style="rounded=1;whiteSpace=wrap;html=1;fillColor=#A0ACDE;" parent="1" vertex="1">
          <mxGeometry x="215" y="402.5" width="100" height="55" as="geometry" />
        </mxCell>
        <mxCell id="2FnHlDQc3e_-eUdSoOCG-20" value="&lt;span style=&quot;font-size: 20px&quot;&gt;D网口&lt;/span&gt;" style="rounded=1;whiteSpace=wrap;html=1;fillColor=#9AC7BF;strokeColor=#9AC7BF;strokeWidth=3;dashed=1;" parent="1" vertex="1">
          <mxGeometry x="395" y="490" width="60" height="60" as="geometry" />
        </mxCell>
        <mxCell id="2FnHlDQc3e_-eUdSoOCG-21" style="edgeStyle=orthogonalEdgeStyle;rounded=0;orthogonalLoop=1;jettySize=auto;html=1;exitX=1;exitY=0.5;exitDx=0;exitDy=0;entryX=0;entryY=0.5;entryDx=0;entryDy=0;endArrow=none;endFill=0;strokeWidth=5;shape=link;" parent="1" source="2FnHlDQc3e_-eUdSoOCG-23" target="2FnHlDQc3e_-eUdSoOCG-20" edge="1">
          <mxGeometry relative="1" as="geometry" />
        </mxCell>
        <mxCell id="2FnHlDQc3e_-eUdSoOCG-22" style="edgeStyle=orthogonalEdgeStyle;rounded=0;orthogonalLoop=1;jettySize=auto;html=1;exitX=0;exitY=0.5;exitDx=0;exitDy=0;entryX=0.989;entryY=0.079;entryDx=0;entryDy=0;entryPerimeter=0;endArrow=none;endFill=0;strokeWidth=5;shape=link;" parent="1" source="2FnHlDQc3e_-eUdSoOCG-23" edge="1">
          <mxGeometry relative="1" as="geometry">
            <mxPoint x="154.01" y="519.885" as="targetPoint" />
          </mxGeometry>
        </mxCell>
        <mxCell id="2FnHlDQc3e_-eUdSoOCG-23" value="&lt;font style=&quot;font-size: 25px&quot;&gt;PHY&lt;/font&gt;" style="rounded=1;whiteSpace=wrap;html=1;fillColor=#A0ACDE;" parent="1" vertex="1">
          <mxGeometry x="215" y="492.5" width="100" height="55" as="geometry" />
        </mxCell>
        <mxCell id="2FnHlDQc3e_-eUdSoOCG-25" value="" style="shape=flexArrow;endArrow=classic;html=1;strokeWidth=5;endWidth=33;endSize=8.67;width=27;strokeColor=#6DB5A8;fillColor=#6DB5A8;" parent="1" edge="1">
          <mxGeometry width="50" height="50" relative="1" as="geometry">
            <mxPoint x="249.5" y="110" as="sourcePoint" />
            <mxPoint x="249.5" y="170" as="targetPoint" />
          </mxGeometry>
        </mxCell>
        <mxCell id="2FnHlDQc3e_-eUdSoOCG-27" value="" style="endArrow=none;dashed=1;html=1;strokeWidth=5;fillColor=#6DB5A8;startArrow=classic;startFill=1;strokeColor=#376B73;" parent="1" edge="1">
          <mxGeometry width="50" height="50" relative="1" as="geometry">
            <mxPoint x="135" y="280" as="sourcePoint" />
            <mxPoint x="415" y="279" as="targetPoint" />
          </mxGeometry>
        </mxCell>
        <mxCell id="2FnHlDQc3e_-eUdSoOCG-29" value="" style="endArrow=none;dashed=1;html=1;strokeWidth=5;fillColor=#6DB5A8;strokeColor=#376B73;" parent="1" edge="1">
          <mxGeometry width="50" height="50" relative="1" as="geometry">
            <mxPoint x="141" y="527" as="sourcePoint" />
            <mxPoint x="141" y="287" as="targetPoint" />
          </mxGeometry>
        </mxCell>
        <mxCell id="2FnHlDQc3e_-eUdSoOCG-30" value="" style="endArrow=classic;dashed=1;html=1;strokeWidth=5;fillColor=#6DB5A8;startArrow=none;startFill=0;endFill=1;strokeColor=#376B73;" parent="1" edge="1">
          <mxGeometry width="50" height="50" relative="1" as="geometry">
            <mxPoint x="142" y="371" as="sourcePoint" />
            <mxPoint x="395" y="370" as="targetPoint" />
          </mxGeometry>
        </mxCell>
        <mxCell id="2FnHlDQc3e_-eUdSoOCG-31" value="" style="endArrow=classic;dashed=1;html=1;strokeWidth=5;fillColor=#6DB5A8;startArrow=none;startFill=0;endFill=1;strokeColor=#376B73;" parent="1" edge="1">
          <mxGeometry width="50" height="50" relative="1" as="geometry">
            <mxPoint x="145" y="451" as="sourcePoint" />
            <mxPoint x="395" y="450" as="targetPoint" />
          </mxGeometry>
        </mxCell>
        <mxCell id="2FnHlDQc3e_-eUdSoOCG-32" value="" style="endArrow=classic;dashed=1;html=1;strokeWidth=5;fillColor=#6DB5A8;startArrow=none;startFill=0;endFill=1;strokeColor=#376B73;" parent="1" edge="1">
          <mxGeometry width="50" height="50" relative="1" as="geometry">
            <mxPoint x="142" y="541" as="sourcePoint" />
            <mxPoint x="392" y="540" as="targetPoint" />
          </mxGeometry>
        </mxCell>
      </root>
    </mxGraphModel>
  </diagram>
</mxfile>
